<svg xmlns="http://www.w3.org/2000/svg" width="31" height="36" fill="none" viewBox="0 0 31 36"><g clip-path="url(#clip0_218_5893)"><path fill="#C7CBD4" d="M27.326 7.623c-.277 1.708.428 3.018 1.808 4.075.468.376.88.81 1.226 1.29.868 1.162.858 2.303-.026 3.451a9.683 9.683 0 0 1-1.594 1.613c-1.024.826-1.453 1.86-1.392 3.11.027.55.01 1.102-.01 1.652-.077 1.991-1.12 2.999-3.22 3.09-.764.033-1.529.02-2.294.022-.896 0-1.674.265-2.307.889-.402.397-.825.775-1.242 1.162-.175.16-.353.32-.54.465-1.569 1.259-2.956 1.259-4.497-.03-.55-.465-1.07-.956-1.57-1.462-.703-.713-1.557-1.024-2.575-1.03-.839 0-1.683.06-2.519-.055-1.972-.27-2.82-1.162-2.896-3.064a37.848 37.848 0 0 1-.015-2.043 2.968 2.968 0 0 0-.246-1.292 3.113 3.113 0 0 0-.787-1.081c-.643-.597-1.315-1.17-1.862-1.86-1.01-1.262-1.01-2.424 0-3.693.555-.698 1.248-1.273 1.9-1.883.674-.63.964-1.379.99-2.259.026-.854-.059-1.71.072-2.557.273-1.755 1.246-2.58 3.129-2.657.93-.038 1.864.028 2.796-.057a2.793 2.793 0 0 0 1.678-.71c.613-.55 1.198-1.118 1.815-1.658a5.51 5.51 0 0 1 .876-.626c1.007-.58 2.022-.567 3.026.018.643.368 1.213.84 1.685 1.395 1.063 1.272 2.43 1.767 4.11 1.635a7.715 7.715 0 0 1 1.784.057c1.764.278 2.609 1.162 2.703 2.87.014.417-.006.818-.006 1.223ZM8.154 4.691v.013c-.428 0-.859-.018-1.284 0-1.309.063-1.84.556-1.917 1.801-.033.52-.016 1.046-.025 1.565-.006.29-.023.58-.028.87-.018 1.149-.51 2.091-1.366 2.89-.523.488-1.06.967-1.542 1.489-.974 1.045-.96 1.686 0 2.734.16.175.333.34.504.506.426.415.858.823 1.282 1.243a3.633 3.633 0 0 1 1.095 2.325c.081.914.011 1.826.07 2.737.075 1.184.532 1.627 1.754 1.767.653.072 1.313.087 1.97.046 1.736-.105 3.116.51 4.247 1.736a8.467 8.467 0 0 0 1.616 1.408c.626.405 1.245.414 1.875.01.315-.207.61-.44.88-.698.456-.428.912-.854 1.368-1.278.834-.787 1.84-1.14 3.015-1.163.915-.016 1.84.053 2.748-.07.981-.133 1.417-.548 1.542-1.487.087-.677.108-1.36.064-2.04-.095-1.59.504-2.875 1.757-3.924a8.775 8.775 0 0 0 1.503-1.521c.526-.722.524-1.226-.007-1.952-.43-.589-.981-1.08-1.533-1.551-1.235-1.046-1.81-2.325-1.717-3.896a9.498 9.498 0 0 0-.07-2.126c-.137-.813-.52-1.192-1.37-1.354a6.851 6.851 0 0 0-1.781-.075c-2.06.154-3.74-.478-5.049-2.017a5.344 5.344 0 0 0-1.517-1.247 1.489 1.489 0 0 0-1.519 0 5.925 5.925 0 0 0-1.615 1.337c-1.275 1.451-2.884 2.086-4.86 1.918-.03.002-.06.004-.09.004Z"/><path fill="#C7CBD4" d="m9.345 34.493 3.285-1.643c.877-.439 1.755-.871 2.622-1.327a.638.638 0 0 1 .67 0c1.812.923 3.633 1.83 5.45 2.743.13.066.263.128.45.219V28.666c0-.502.232-.788.633-.795.401-.007.652.284.652.778v6.432c0 .813-.59 1.146-1.356.766a624.421 624.421 0 0 1-5.775-2.906.757.757 0 0 0-.792.008c-1.88.958-3.768 1.898-5.655 2.842-.923.465-1.471.145-1.471-.85v-6.346c0-.32.1-.57.435-.685a.632.632 0 0 1 .383-.02.604.604 0 0 1 .318.203c.154.164.153.369.153.575-.003 1.914-.002 3.826-.002 5.825ZM15.528 21.694c-4.022-.009-7.278-2.89-7.43-6.716-.193-4.858 4.66-8.324 9.417-7.015.385.105.684.273.652.709-.032.412-.423.622-.92.486a6.404 6.404 0 0 0-3.996.159c-2.715.986-4.35 3.81-3.754 6.483.637 2.85 3.243 4.803 6.23 4.67 3.447-.155 6.009-2.834 5.84-6.127-.017-.31.023-.58.333-.748.444-.233.906.042.949.575.153 1.897-.438 3.579-1.704 5.035a7.059 7.059 0 0 1-2.507 1.856 7.43 7.43 0 0 1-3.11.633Z"/><path fill="#FFD232" d="M11.998 12.428c.221-.014.367.132.523.277.82.78 1.653 1.546 2.453 2.34.27.267.416.315.727.016 2.113-2.03 4.251-4.039 6.376-6.053.101-.108.214-.205.336-.291a.664.664 0 0 1 .81.083.58.58 0 0 1 .062.769 1.983 1.983 0 0 1-.246.254c-2.456 2.335-4.913 4.673-7.371 7.012-.246.232-.36.232-.599 0-1.152-1.12-2.33-2.219-3.495-3.323-.229-.216-.325-.465-.187-.744a.582.582 0 0 1 .247-.264.63.63 0 0 1 .364-.076Z"/></g><defs><clipPath id="clip0_218_5893"><path fill="#fff" d="M0 0h31v36H0z"/></clipPath></defs></svg>