<svg xmlns="http://www.w3.org/2000/svg" xml:space="preserve" id="Layer_1" x="0" y="0" style="enable-background:new 0 0 34 34" version="1.1" viewBox="0 0 34 34"><style type="text/css">.st5{fill:#c7cbd4;stroke:#fefefe;stroke-width:.3135}</style><path d="M0 0h34v34H0z" style="fill:none"/><defs><filter id="Adobe_OpacityMaskFilter" width="34.3" height="26.9" x="-.2" y="-.2" filterUnits="userSpaceOnUse"><feColorMatrix type="matrix" values="1 0 0 0 0 0 1 0 0 0 0 0 1 0 0 0 0 0 1 0"/></filter></defs><mask id="path-1-inside-1_412_6568_00000064333653108058384530000013109935304933135490_" width="34.3" height="26.9" x="-.2" y="-.2" maskUnits="userSpaceOnUse"><path d="M34 8.1c-.1.2-.2.5-.2.8 0 .1 0 .2-.1.3-.1.2-.2.4-.2.7 0 .1 0 .3-.1.4-.1.2-.2.5-.2.7 0 .1 0 .3-.1.4-.1.2-.2.5-.2.8 0 .1 0 .3-.1.4-.1.3-.2.5-.3.8 0 .1 0 .2-.1.3-.1.2-.2.4-.2.7 0 .1 0 .3-.1.4-.1.2-.2.5-.2.7 0 .1 0 .3-.1.4-.1.2-.2.5-.2.8 0 .1 0 .2-.1.3-.1.3-.2.5-.2.8 0 .1-.1.2-.1.3-.1.2-.2.4-.2.7 0 .2-.1.3-.2.4-.2.4-.4.8-.7 1.2-.1.3-.4.5-.6.6-.3 0-.4 0-.5.1-.4.3-.8.5-1.2.7-.1 0-.2.1-.3.1-.2.1-.5.1-.7.2H11.6c-.2 0-.2 0-.2.2l.3.9c0 .1 0 .1.1.2s.1.2.2.3c0 .1.1.1.1.2.1.1.2.1.2.2l.2.2c.1.1.2.1.3.2.1 0 .1.1.2.1s.2.1.3.1c.1 0 .2.1.3.1.2 0 .3 0 .5.1h14c.1 0 .2-.1.3 0l.3.1s.1 0 .1.1l.1.1.2.3c.1.1 0 .2 0 .3-.1.5-.4.7-.9.7-.1 0-.1.1-.2.1h-3c-.1 0-.1 0-.2-.1h-.6c-.1 0-.1.1-.2 0h-.6c-.1 0-.1.1-.2.1h-8.6c-.1 0-.1 0-.2-.1h-.6c-.1.1-.2 0-.3 0H13l-.4-.1c-.1 0-.2 0-.2-.1l-.3-.2c-.1 0-.2 0-.2-.1l-.3-.2h-.1l-.1-.1-.3-.2s-.1 0-.1-.1l-.1-.1-.2-.2s-.1 0-.1-.1v-.1c-.1-.1-.2-.2-.2-.3-.1 0-.1-.1-.1-.2l-.2-.3c-.1 0-.1-.1-.1-.2s-.1-.2-.1-.3c-.1 0-.1-.1-.1-.2s-.1-.3-.1-.4c-.1-.1 0-.2-.1-.2 0-.1 0-.2-.1-.3-.1-.1 0-.2-.1-.2 0-.1-.1-.3-.1-.4-.1 0-.1-.1 0-.2 0-.2-.1-.3-.1-.5-.1-.1 0-.2-.1-.2 0-.1 0-.2-.1-.3-.1-.1-.1-.1-.1-.2s-.1-.3-.1-.4c.2-.1.2-.1.2-.2 0-.2-.1-.3-.1-.5-.1-.1 0-.1-.1-.2 0-.1 0-.2-.1-.3-.1-.1-.1-.1-.1-.2s-.1-.3-.1-.4v-.2c0-.1-.1-.3-.1-.4-.1-.1 0-.2-.1-.2 0-.1 0-.2-.1-.3 0-.1-.1-.1-.1-.2 0-.2-.1-.3-.1-.5-.1-.1 0-.2-.1-.2 0-.1 0-.2-.1-.3-.1-.1-.1-.1-.1-.2s-.1-.3-.1-.4c-.1 0-.1-.1 0-.2 0-.2-.1-.3-.1-.5-.1-.1 0-.2-.1-.2 0-.1 0-.2-.1-.3 0 0 0-.1-.1-.1V14c0-.1-.1-.3-.1-.4v-.2c0-.2-.1-.3-.1-.4-.1-.1 0-.2-.1-.2 0-.1 0-.2-.1-.3 0-.1-.1-.1-.1-.2 0-.2-.1-.3-.1-.5-.1-.1 0-.2-.1-.2 0-.1 0-.2-.1-.3-.1-.1 0-.2-.1-.2 0-.1-.1-.3-.1-.4-.1 0-.1-.1 0-.2 0-.2-.1-.3-.1-.5-.1-.1 0-.2-.1-.3 0-.1 0-.2-.1-.3v-.2c0-.1-.1-.3-.1-.4l-.1-.1v-.1c0-.2-.1-.3-.1-.5-.1 0-.1-.1-.1-.1 0-.1 0-.2-.1-.3 0-.1-.1-.2-.1-.3 0-.1-.1-.3-.1-.4-.1-.1 0-.2-.1-.2 0-.1 0-.2-.1-.3v-.3c0-.1 0-.2-.1-.3 0-.1-.1-.1-.1-.2 0-.2-.1-.3-.1-.5-.1-.1 0-.2-.1-.2 0-.1 0-.2-.1-.3v-.3c0-.1-.1-.3-.1-.4-.1 0-.1-.1-.1-.1 0-.1-.1-.2-.2-.3H4v-.1c-.2-.1-.3-.2-.4-.3-.1 0-.1-.1-.2-.1S3.2 3 3.1 3c-.1 0-.2 0-.2-.1-.1-.1-.2-.2-.3-.2-.1 0-.1 0-.2-.1L2 2.4h-.2c0-.1-.1-.2-.2-.3-.1 0-.1 0-.2-.1l-.3-.1c-.1 0-.2 0-.2-.1-.1-.1-.2-.1-.3-.2H.5s-.1 0-.1-.1l-.2-.2c-.2 0-.1-.2-.2-.2V.8C0 .7 0 .6.1.5.1.4.2.3.3.3.4.1.5 0 .7 0h.4c.1 0 .2 0 .2.1l.3.2c.1 0 .2 0 .2.1.1.1.2.1.4.2h.1s.1 0 .1.1c.1.1.2.1.4.2h.1V1s.2.1.3.1c.1 0 .1 0 .2.1s.2.1.3.2h.1s.1 0 .1.1l.3.2c.1 0 .2 0 .2.1.1.1.2.1.3.2.1 0 .2 0 .2.1l.3.2h.1v.1l.2.3s.1 0 .1.1v.1c.1 0 .2.1.2.2.1.1.1.2.1.2l.1.3c.1.1 0 .2.1.3 0 .1 0 .2.1.3.1.1 0 .2.1.2 0 .1 0 .2.1.3 0 .2.1.3 0 .3 0 .2.1.3.1.5.1.1 0 .2.1.2 0 .1 0 .2.1.3.1.1.1.1.1.2s.1.3.1.4c.1 0 0 .1 0 .2.1.2.1.3.2.5.1.1 0 .2.1.2 0 .1 0 .2.1.3 0 0 0 .1.1.1V8c0 .1.1.3.1.4v.2c0 .1.1.3.1.4.1.1 0 .2.1.2 0 .1 0 .2.1.3 0 .1.1.1.1.2s.1.3.1.4c0 .1 0 .2.1.2 0 .1.1.2.1.3 0 .1 0 .2.1.2 0 .1.1.3.1.4v.2c0 .1.1.3.1.4 0 .1 0 .2.1.2 0 .1.1.2.1.3 0 .1 0 .2.1.2 0 .1.1.3.1.4v.2c0 .1.1.3.1.4 0 .1 0 .1.1.2 0 .1.1.2.1.3 0 .1 0 .2.1.2 0 .1.1.3.1.4 0 .1 0 .2.1.2 0 .1.1.2.1.3 0 .1 0 .2.1.2 0 .1.1.3.1.4v.2c0 .1.1.3.1.4 0 .1 0 .2.1.2 0 .1.1.2.1.3 0 .1 0 .1.1.2 0 .1.1.3.1.4v.2c0 .1.1.3.1.4 0 .1 0 .1.1.2 0 .1.1.2.1.3 0 .1 0 .2.1.2 0 .1.1.3.1.4v.2c0 .1.1.3.2.4h15.3c.1 0 .3 0 .4-.1.1 0 .3 0 .4-.1.9-.3 1.5-.9 1.9-1.8 0-.1.1-.2.1-.3.1-.2.2-.5.2-.7 0-.1.1-.2.1-.4.1-.2.2-.5.2-.7 0-.1.1-.2.1-.4.1-.2.1-.4.2-.7.1.5.1.4.1.3.1-.2.1-.5.2-.7 0-.1.1-.3.1-.4.1-.2.2-.5.2-.8.1-.1.1-.2.1-.4.1-.3.2-.5.2-.8 0-.1.1-.2.1-.3.1-.2.1-.4.2-.7.1-.1.1-.3.1-.4.1-.2.2-.5.2-.7 0-.1.1-.2.1-.4.3-.2.4-.4.5-.7 0-.1.1-.2.2-.3 0-.1.1-.3.1-.4.2-.5.4-.7.9-.7.1 0 .2 0 .3.1l.3.2c.1 0 .1.1.1.2l.1.1c0 .2.1.3 0 .4z" style="fill:#fff;filter:url(#Adobe_OpacityMaskFilter)"/></mask><path d="M34 8.1c-.1.2-.2.5-.2.8 0 .1 0 .2-.1.3-.1.2-.2.4-.2.7 0 .1 0 .3-.1.4-.1.2-.2.5-.2.7 0 .1 0 .3-.1.4-.1.2-.2.5-.2.8 0 .1 0 .3-.1.4-.1.3-.2.5-.3.8 0 .1 0 .2-.1.3-.1.2-.2.4-.2.7 0 .1 0 .3-.1.4-.1.2-.2.5-.2.7 0 .1 0 .3-.1.4-.1.2-.2.5-.2.8 0 .1 0 .2-.1.3-.1.3-.2.5-.2.8 0 .1-.1.2-.1.3-.1.2-.2.4-.2.7 0 .2-.1.3-.2.4-.2.4-.4.8-.7 1.2-.1.3-.4.5-.6.6-.3 0-.4 0-.5.1-.4.3-.8.5-1.2.7-.1 0-.2.1-.3.1-.2.1-.5.1-.7.2H11.6c-.2 0-.2 0-.2.2l.3.9c0 .1 0 .1.1.2s.1.2.2.3c0 .1.1.1.1.2.1.1.2.1.2.2l.2.2c.1.1.2.1.3.2.1 0 .1.1.2.1s.2.1.3.1c.1 0 .2.1.3.1.2 0 .3 0 .5.1h14c.1 0 .2-.1.3 0l.3.1s.1 0 .1.1l.1.1.2.3c.1.1 0 .2 0 .3-.1.5-.4.7-.9.7-.1 0-.1.1-.2.1h-3c-.1 0-.1 0-.2-.1h-.6c-.1 0-.1.1-.2 0h-.6c-.1 0-.1.1-.2.1h-8.6c-.1 0-.1 0-.2-.1h-.6c-.1.1-.2 0-.3 0H13l-.4-.1c-.1 0-.2 0-.2-.1l-.3-.2c-.1 0-.2 0-.2-.1l-.3-.2h-.1l-.1-.1-.3-.2s-.1 0-.1-.1l-.1-.1-.2-.2s-.1 0-.1-.1v-.1c-.1-.1-.2-.2-.2-.3-.1 0-.1-.1-.1-.2l-.2-.3c-.1 0-.1-.1-.1-.2s-.1-.2-.1-.3c-.1 0-.1-.1-.1-.2s-.1-.3-.1-.4c-.1-.1 0-.2-.1-.2 0-.1 0-.2-.1-.3-.1-.1 0-.2-.1-.2 0-.1-.1-.3-.1-.4-.1 0-.1-.1 0-.2 0-.2-.1-.3-.1-.5-.1-.1 0-.2-.1-.2 0-.1 0-.2-.1-.3-.1-.1-.1-.1-.1-.2s-.1-.3-.1-.4c.2-.1.2-.1.2-.2 0-.2-.1-.3-.1-.5-.1-.1 0-.1-.1-.2 0-.1 0-.2-.1-.3-.1-.1-.1-.1-.1-.2s-.1-.3-.1-.4v-.2c0-.1-.1-.3-.1-.4-.1-.1 0-.2-.1-.2 0-.1 0-.2-.1-.3 0-.1-.1-.1-.1-.2 0-.2-.1-.3-.1-.5-.1-.1 0-.2-.1-.2 0-.1 0-.2-.1-.3-.1-.1-.1-.1-.1-.2s-.1-.3-.1-.4c-.1 0-.1-.1 0-.2 0-.2-.1-.3-.1-.5-.1-.1 0-.2-.1-.2 0-.1 0-.2-.1-.3 0 0 0-.1-.1-.1V14c0-.1-.1-.3-.1-.4v-.2c0-.2-.1-.3-.1-.4-.1-.1 0-.2-.1-.2 0-.1 0-.2-.1-.3 0-.1-.1-.1-.1-.2 0-.2-.1-.3-.1-.5-.1-.1 0-.2-.1-.2 0-.1 0-.2-.1-.3-.1-.1 0-.2-.1-.2 0-.1-.1-.3-.1-.4-.1 0-.1-.1 0-.2 0-.2-.1-.3-.1-.5-.1-.1 0-.2-.1-.3 0-.1 0-.2-.1-.3v-.2c0-.1-.1-.3-.1-.4l-.1-.1v-.1c0-.2-.1-.3-.1-.5-.1 0-.1-.1-.1-.1 0-.1 0-.2-.1-.3 0-.1-.1-.2-.1-.3 0-.1-.1-.3-.1-.4-.1-.1 0-.2-.1-.2 0-.1 0-.2-.1-.3v-.3c0-.1 0-.2-.1-.3 0-.1-.1-.1-.1-.2 0-.2-.1-.3-.1-.5-.1-.1 0-.2-.1-.2 0-.1 0-.2-.1-.3v-.3c0-.1-.1-.3-.1-.4-.1 0-.1-.1-.1-.1 0-.1-.1-.2-.2-.3H4v-.1c-.2-.1-.3-.2-.4-.3-.1 0-.1-.1-.2-.1S3.2 3 3.1 3c-.1 0-.2 0-.2-.1-.1-.1-.2-.2-.3-.2-.1 0-.1 0-.2-.1L2 2.4h-.2c0-.1-.1-.2-.2-.3-.1 0-.1 0-.2-.1l-.3-.1c-.1 0-.2 0-.2-.1-.1-.1-.2-.1-.3-.2H.5s-.1 0-.1-.1l-.2-.2c-.2 0-.1-.2-.2-.2V.8C0 .7 0 .6.1.5.1.4.2.3.3.3.4.1.5 0 .7 0h.4c.1 0 .2 0 .2.1l.3.2c.1 0 .2 0 .2.1.1.1.2.1.4.2h.1s.1 0 .1.1c.1.1.2.1.4.2h.1V1s.2.1.3.1c.1 0 .1 0 .2.1s.2.1.3.2h.1s.1 0 .1.1l.3.2c.1 0 .2 0 .2.1.1.1.2.1.3.2.1 0 .2 0 .2.1l.3.2h.1v.1l.2.3s.1 0 .1.1v.1c.1 0 .2.1.2.2.1.1.1.2.1.2l.1.3c.1.1 0 .2.1.3 0 .1 0 .2.1.3.1.1 0 .2.1.2 0 .1 0 .2.1.3 0 .2.1.3 0 .3 0 .2.1.3.1.5.1.1 0 .2.1.2 0 .1 0 .2.1.3.1.1.1.1.1.2s.1.3.1.4c.1 0 0 .1 0 .2.1.2.1.3.2.5.1.1 0 .2.1.2 0 .1 0 .2.1.3 0 0 0 .1.1.1V8c0 .1.1.3.1.4v.2c0 .1.1.3.1.4.1.1 0 .2.1.2 0 .1 0 .2.1.3 0 .1.1.1.1.2s.1.3.1.4c0 .1 0 .2.1.2 0 .1.1.2.1.3 0 .1 0 .2.1.2 0 .1.1.3.1.4v.2c0 .1.1.3.1.4 0 .1 0 .2.1.2 0 .1.1.2.1.3 0 .1 0 .2.1.2 0 .1.1.3.1.4v.2c0 .1.1.3.1.4 0 .1 0 .1.1.2 0 .1.1.2.1.3 0 .1 0 .2.1.2 0 .1.1.3.1.4 0 .1 0 .2.1.2 0 .1.1.2.1.3 0 .1 0 .2.1.2 0 .1.1.3.1.4v.2c0 .1.1.3.1.4 0 .1 0 .2.1.2 0 .1.1.2.1.3 0 .1 0 .1.1.2 0 .1.1.3.1.4v.2c0 .1.1.3.1.4 0 .1 0 .1.1.2 0 .1.1.2.1.3 0 .1 0 .2.1.2 0 .1.1.3.1.4v.2c0 .1.1.3.2.4h15.3c.1 0 .3 0 .4-.1.1 0 .3 0 .4-.1.9-.3 1.5-.9 1.9-1.8 0-.1.1-.2.1-.3.1-.2.2-.5.2-.7 0-.1.1-.2.1-.4.1-.2.2-.5.2-.7 0-.1.1-.2.1-.4.1-.2.1-.4.2-.7.1.5.1.4.1.3.1-.2.1-.5.2-.7 0-.1.1-.3.1-.4.1-.2.2-.5.2-.8.1-.1.1-.2.1-.4.1-.3.2-.5.2-.8 0-.1.1-.2.1-.3.1-.2.1-.4.2-.7.1-.1.1-.3.1-.4.1-.2.2-.5.2-.7 0-.1.1-.2.1-.4.3-.2.4-.4.5-.7 0-.1.1-.2.2-.3 0-.1.1-.3.1-.4.2-.5.4-.7.9-.7.1 0 .2 0 .3.1l.3.2c.1 0 .1.1.1.2l.1.1c0 .2.1.3 0 .4z" style="mask:url(#path-1-inside-1_412_6568_00000064333653108058384530000013109935304933135490_);fill:#c7cbd4;stroke:#fefefe;stroke-width:.3135"/><path d="m21.5 1.1.5.2h.2c.1.1.2.1.3.1.1 0 .2 0 .3.1l.3.1c.1 0 .2 0 .2.1.1.1.2.1.3.2.1 0 .1.1.2.1.1.1.2.1.3.2.1 0 .1 0 .2.1l.3.2c.1 0 .1.1.2.1l.2.2c.1 0 .1.1.2.1l.3.2h.1v.1l.2.3c.1 0 .1.1.1.2l.3.3c.1 0 .1.1.1.2l.2.3c.1 0 .1.1.1.2l.2.3c0 .1.1.1.1.2s.1.2.2.3c.1.1.1.1.1.2s.1.2.1.3c.1.1.1.2.1.3 0 .1.1.2.1.3.1 0 0 .1 0 .2l.1.5v.2c0 .2 0 .3.1.5.1.1 0 .2 0 .3v.2c.1.2 0 .4 0 .6V9.7c0 .2-.1.4-.1.6v.1s0 .1-.1.1l-.2.6c0 .2 0 .3-.1.4-.1.3-.2.6-.4.9 0 .2-.2.4-.3.5-.5.9-1.2 1.6-2.1 2.3-.3.2-.6.4-.8.6-.2.1-.3.2-.5.3-.3.1-.6.3-.9.4-.1 0-.2.1-.4.1-.2.1-.5.1-.7.2-.1 0-.3 0-.4.1-.2 0-.3.1-.5.1H18.4c-.2 0-.3-.1-.5-.1h-.2c-.1 0-.3 0-.4-.1-.1 0-.2 0-.3-.1-.1 0-.3-.1-.4-.1-.1 0-.1 0-.2-.1-.1 0-.3-.1-.4-.2-.1 0-.1-.1-.2-.1-.1-.1-.3-.1-.4-.2l-.1-.1c-.1-.1-.2-.1-.3-.2-.1 0-.1-.1-.2-.1-.1-.1-.2-.1-.3-.2-.1 0-.1-.1-.2-.1-.1-.1-.2-.1-.3-.2-.1 0-.1-.1-.2-.1l-.3-.3-.1-.1-.3-.3c0-.1-.1-.1-.1-.2-.1-.1-.2-.2-.2-.3 0-.1-.1-.1-.1-.2-.1-.1-.1-.2-.2-.3 0-.1-.1-.1-.1-.2-.1-.1-.1-.2-.2-.3l-.1-.1c-.1-.1-.1-.2-.2-.4 0-.1-.1-.1-.1-.2s-.1-.2-.2-.4c0-.1-.1-.1-.1-.2s-.1-.2-.1-.4c0-.1 0-.2-.1-.2 0-.1-.1-.2-.1-.4v-.2c0-.2-.1-.3-.1-.5V8.1c0-.1 0-.3.1-.4 0-.1.1-.3.1-.4.1-.2.1-.4.2-.6 0-.1.1-.3.2-.4.1-.3.2-.6.4-.9.1-.2.2-.4.3-.5.4-.6.9-1.2 1.4-1.7.4-.4.9-.7 1.4-1 .2-.1.4-.3.6-.3l.9-.3c.1-.1.2-.1.3-.1l.8-.2h.2l1.1-.3H20.5c.1.1.2-.1.3 0l.5.1h.2z" style="fill:#ffd232"/><path d="m23.4 5.9.2.1.2.3v.2c0 .1 0 .3-.1.4-.1.1-.1.2-.2.3-.2.2-.4.4-.5.6-.6.6-1.2 1.3-1.7 1.9-.4.4-.8.9-1.2 1.3-.2.3-.5.5-.8.7l-.4.1h-.7l-.4-.2-.1-.1-.3-.2c0-.1-.1-.1-.1-.1-.2-.1-.3-.2-.4-.2l-.1-.1-.3-.3-.1-.1-.3-.3-.1-.1c-.1-.1-.2-.2-.2-.4v-.3c0-.2.1-.3.2-.4.1-.1.3-.2.4-.3h.4c.1 0 .2.1.4.2l.2.1c.1.1.2.2.3.2 0 .1.1.1.1.1l.3.3.1.1.3.3c.1.1.2 0 .3-.1.3-.4.7-.8 1-1.1.2-.2.4-.5.7-.7.6-.7 1.2-1.4 1.9-2 .1-.2.3-.3.6-.4h.4v.2z" style="fill:#fefefe"/><circle cx="15.6" cy="30.2" r="2.7" class="st5"/><circle cx="24.3" cy="30.2" r="2.7" class="st5"/></svg>