<svg xmlns="http://www.w3.org/2000/svg" width="203" height="198" fill="none" viewBox="0 0 203 198"><path fill="#FFE998" d="M173.429 20H34.571C28.181 20 23 25.18 23 31.571V170.43C23 176.819 28.18 182 34.571 182H173.43c6.39 0 11.571-5.181 11.571-11.571V31.571C185 25.181 179.819 20 173.429 20Z"/><path fill="#4C403C" d="M32.416 49.58S16.6 40.721 16.6 29.967a8.224 8.224 0 0 1 15.816-3.164 8.224 8.224 0 0 1 15.816 3.164c0 10.754-15.816 19.611-15.816 19.611ZM101.385 109.623s-15.816-8.857-15.816-19.612a8.225 8.225 0 0 1 15.816-3.163 8.228 8.228 0 0 1 9.205-4.901 8.224 8.224 0 0 1 6.611 8.064c0 10.755-15.816 19.612-15.816 19.612ZM177.658 178.188s-15.816-8.857-15.816-19.612a8.226 8.226 0 0 1 12.09-7.259 8.225 8.225 0 0 1 3.726 4.096 8.221 8.221 0 0 1 9.204-4.902 8.224 8.224 0 0 1 6.612 8.065c0 10.755-15.816 19.612-15.816 19.612Z"/><g clip-path="url(#clip0_1040_3548)"><path fill="#FFD232" d="m131.925 15.21-.203.62h.552l.056.155c-.628.353-1.268.69-1.884 1.063-.206.13-.371.313-.478.531a1.624 1.624 0 0 1-1.658 1.063c-.065.406-.126.767-.199 1.197l-.405-.17c-.531.438-.944.758-1.341 1.107-.523.459-1.001.974-1.548 1.4-.462.36-1.074.548-1.479.953-.645.641-1.164 1.408-1.747 2.11a2.783 2.783 0 0 1-.653.637c-.555.324-1.159.564-1.718.884-.174.098-.276.333-.405.507-.23.366-.502.704-.811 1.006-2.687 2.134-5.398 4.244-8.105 6.366a2.622 2.622 0 0 0-.308.349c.811.909 1.645 1.76 2.359 2.71 1.455 1.935 3.416 3.424 4.761 5.453.144.186.311.353.499.495.43.373.944.519 1.191 1.245.195.564 1.216.812 1.804 1.286.587.475.936 1.1 1.439 1.623 1.098 1.132 2.224 2.236 3.339 3.351.162.162.312.337.47.511-.551-.073-1.005-.11-1.447-.198-.202-.041-.535-.155-.563-.284-.158-.767-.689-1.035-1.366-1.124-.754-.102-.81-.65-.81-1.25l-1.119.09c0-.215.069-.544-.04-.625-1.143-.856-2.618-1.457-3.393-2.552-.774-1.096-1.799-1.554-2.934-2.029-.356-.15-.498-.811-.737-1.217-.304-.547-.535-1.156-1.342-1.152-.194 0-.405-.223-.579-.406-1.329-1.367-2.646-2.746-4.053-4.21a9.717 9.717 0 0 0-1.297 1.119c-1.074 1.335-2.549 2.028-4.052 2.73-.122.057-.324.073-.353.158-.575 1.595-2.168 2.029-3.335 2.966a2.603 2.603 0 0 1-.888.357c-.378.445-.784.865-1.215 1.258-1.447 1.148-2.793 2.556-4.43 3.314-1.828.844-3.072 2.986-5.511 2.565l4.498-4.845.632.244c0-1.254.912-1.745 1.759-2.313.847-.568 1.718-1.25 2.565-1.886 1.93-1.449 3.846-2.901 5.775-4.345.337-.248.58-.747 1.184-.438.294-.324.55-.68.762-1.063.275-.443.506-.91.757-1.364l.284.106c.045.231.089.466.138.698 1.086-.353 1.333-.86.685-1.708-1.281-1.68-2.691-3.246-3.948-4.95a17.092 17.092 0 0 1-2.026-3.651c-.28-.122-.721-.167-.81-.373-.592-1.31-1.986-2.183-2.06-3.77 0-.105-.108-.21-.185-.3a10.015 10.015 0 0 1-1.038-1.217c-.766-1.217-1.524-2.479-2.197-3.765a43.63 43.63 0 0 1-1.965-4.211c-.178-.463.053-1.087.093-1.623.75.889 1.658 1.664 2.152 2.645.466.913 1.775 1.323 1.787 2.467a16.07 16.07 0 0 1 1.621 1.822c1.5 2.288 2.975 4.592 4.369 6.95.434.742 1.463 1.216 1.216 2.36-.028.13.624.406.964.621l1.528.93-.985.543c.231.215.385.479.552.487 1.276.077 1.58.974 1.819 2 .053.24.361.442.588.625.486.406.993.754 1.463 1.103.737-.811 1.349-2.049 2.29-2.397 1.799-.67 2.796-2.256 4.381-3.157 1.969-1.12 3.679-2.694 5.491-4.085.908-.698 1.698-1.793 2.715-2.057 1.378-.353 1.658-1.696 2.715-2.232.588-.292 1.135-.665 1.706-.99 1.265-.713 2.55-1.403 3.794-2.146.279-.166.441-.519.66-.783l.207.106ZM190.319 112.109l.053-1.014-1.114.056.154-.247-.568-.361a3.376 3.376 0 0 1-.502-.305c-.689-.632-1.354-1.294-2.051-1.914-.879-.792-1.576-1.875-2.812-2.143a1.323 1.323 0 0 1-1.026-.839c-.405-.812-.786-1.469-1.884-1.794-.876-.255-1.484-1.424-2.201-2.194-.717-.771-1.366-1.49-2.176-2.378-.616.564-1.155 1.14-1.771 1.603a38.535 38.535 0 0 1-3.145 2.15c-.405.243-.997.178-.912.901 0 .085-.129.231-.231.279-1.41.65-2.261 2.167-3.911 2.479-.259.049-.368.662-.652.869-1.078.791-2.209 1.505-3.299 2.271-.373.26-.669.629-1.041.885-1.439.986-2.862 2-4.357 2.88-.486.288-1.191.203-1.876.301 1.572-1.684 3.068-3.283 4.636-4.954l.6.26c.028-1.282.976-1.769 1.9-2.386 1.646-1.095 3.202-2.325 4.782-3.521 1.293-.974 2.46-2.183 3.879-2.897a3.393 3.393 0 0 0 1.787-1.92c.308-.73.705-.685 1.289 0 .717-.433.843-.973.308-1.622-1.317-1.643-2.687-3.246-3.956-4.93a21.2 21.2 0 0 1-1.852-3.005c-.202-.406-.214-.836-.81-.784a.21.21 0 0 1-.091-.034.206.206 0 0 1-.067-.071c-.701-1.197-1.394-2.398-2.095-3.595a5.522 5.522 0 0 0-.406-.608 8.465 8.465 0 0 1-.616-.759c-.932-1.517-1.909-3.014-2.743-4.584a23.604 23.604 0 0 1-1.561-3.652c-.17-.519.025-1.16.065-2.028 1.216 2.09 2.951 3.452 4.203 5.595.652.138.981 1.01 1.434 1.866.811 1.541 1.751 3.026 2.712 4.483.871 1.322 2.087 2.475 2.678 3.899.406.961.977 1.217 1.727 1.55.255.105.51.218.766.332l-.276.373-.758.065-.129.288c.408.267.844.487 1.301.658.972.247 1.001 1.095 1.313 1.793.172.296.4.555.672.762.454.406.941.783 1.399 1.165.717-.852 1.284-2.146 2.188-2.459 1.726-.596 2.63-2.093 4.053-2.97 1.167-.71 2.196-1.647 3.307-2.454 1.009-.73 2.058-1.412 3.071-2.138.726-.515 1.346-1.254 2.144-1.574 1.317-.532 1.82-2.061 2.999-2.455.754-.255 1.261-.746 1.885-1.083 1.455-.787 3.015-1.469 4.113-2.803a.702.702 0 0 1 .657-.126l-.774.811h.782c-1.046 1.136-2.926 1.218-3.056 2.889-.405 0-.835-.118-.956.024a1.76 1.76 0 0 0-.284.775c-.369.264-.608.406-.811.597-.478.373-.964.742-1.418 1.14-.377.328-.677.746-1.07 1.038-.393.292-1.066.483-1.435.876a24.696 24.696 0 0 0-1.767 2.293c-.114.19-.215.39-.299.596l-.227-.909c-.057.029-.138.057-.138.07.105.657-.231.953-.811 1.123-.697.207-1.309.524-1.418 1.371a.626.626 0 0 1-.235.406c-2.586 1.663-4.717 3.903-7.234 5.656-.547.405-1.09.775-1.718 1.217 1.215 1.355 2.399 2.633 3.55 3.935 1.151 1.302 2.302 2.682 3.473 4.004.304.345.754.572 1.021.938.811 1.107 1.966 1.76 3.007 2.576a.473.473 0 0 1 .122.341c.405.478.713.843 1.037 1.18 1.058 1.112 1.795 2.54 3.267 3.246a.812.812 0 0 1 .356.657l-.904-.531.033.653c-.34-.248-.847-.406-.932-.714-.393-1.193-1.443-1.161-2.347-1.42ZM36.85 104.652c.886.876 1.72 1.803 2.501 2.775 1.43 1.98 3.445 3.444 4.786 5.493.187.288.628.406.81.69 1.156 1.651 3.206 2.312 4.276 4.15.71 1.217 2.071 2.065 3.137 3.084.133.146.254.304.36.47a9.885 9.885 0 0 1-1.414-.166c-.26-.065-.64-.276-.68-.479-.244-1.132-1.257-.897-2.027-1.266.21-.917-.312-1.103-1.15-.913l.12-.304a3.612 3.612 0 0 1-.68-.369c-.405-.345-.738-.742-1.127-1.091a17.909 17.909 0 0 1-1.418-1.217c-.871-1.02-2.001-1.786-3.27-2.216-.523-.17-.779-1.152-1.156-1.764-.085-.138-.162-.406-.263-.406-1.65-.142-2.087-1.781-3.19-2.601-.765-.572-1.345-1.395-2.107-2.215-1.811 1.582-3.34 3.465-5.742 3.96-.065 1.055-3.117 3.383-4.053 3.408-.64.584-1.05 1.014-1.516 1.371-1.329 1.03-2.654 2.073-4.052 3.031-1.399.957-2.764 1.842-4.211 2.645-.438.243-1.082.122-1.593.166 1.552-1.667 3.08-3.314 4.632-4.941.037-.041.28.117.511.223.13-1.887 1.909-2.183 3.007-3.092 1.621-1.343 3.473-2.434 5.188-3.651.87-.637 1.596-1.489 2.504-2.057.507-.316 1.13-.406 1.418-1.039.227-.499.475-.989.714-1.484l.316.089.11.759c1.105-.345 1.401-.921.81-1.745-1.192-1.623-2.5-3.128-3.717-4.718a11.99 11.99 0 0 1-1.62-2.483c-.548-1.298-1.86-1.964-2.408-3.246-.194-.446-.62-.811-.762-1.258-.271-.84-.81-1.436-1.345-2.105-.535-.67-.896-1.623-1.338-2.455-.648-1.217-1.304-2.41-1.949-3.619a3.412 3.412 0 0 0-.247-.535c-.81-1.006-1.151-2.106-.717-3.327 1.215 1.408 2.715 2.71 3.627 4.337.563 1.014 1.67 1.493 1.998 2.726.328 1.234 1.09 2.264 1.787 3.303 1.09 1.623 2.277 3.177 3.436 4.747.406.543.203 1.476 1.216 1.65.43.074.81.447 1.216.682l-.081.252-1.013.146c.446.406.75.92 1.041.917 1.216-.033 1.54.779 1.654 1.671.073.572.182.84.778.905.194.02.352.345.648.657l.81.313c.56-.666 1.1-1.895 1.974-2.228 1.727-.653 2.708-2.138 4.162-3.054 1.14-.719 2.157-1.623 3.243-2.435 1.017-.734 2.067-1.42 3.088-2.146.721-.515 1.353-1.217 2.148-1.562 1.382-.572 1.977-1.984 3.173-2.694 1.195-.71 2.59-1.363 3.842-2.114.674-.464 1.32-.966 1.937-1.505.188-.13.383-.251.584-.36-.203.51-.345.932-.54 1.334-.105.223-.283.556-.458.576-1.017.114-1.41.856-1.831 1.623a.787.787 0 0 1-.584.264c-.77.044-.956.43-.782.88-.345.317-.576.544-.81.75-.236.207-.495.33-.722.516-.571.47-1.106.982-1.694 1.428-.47.353-1.066.56-1.48.966a6.954 6.954 0 0 0-1.568 1.959 1.756 1.756 0 0 1-1.215 1.002c-.9.284-1.796.491-1.877 1.68 0 .126-.19.255-.316.353l-8.563 6.588c-.1.1-.192.207-.276.321Z"/><path fill="#fff" d="m145.789 196.43.243 1.262-.405.235-.328-.6-.312.673-.203-1.797.632.718c.142-.195.256-.349.377-.503l-.004.012ZM151.224 140.536l-2.355-1.217c.061-.118.126-.235.191-.353.77.435 1.542.867 2.318 1.294l-.154.276ZM68.968 145.636c.27.624.49 1.268.66 1.927.085.462-.085.978-.162 1.659l-.474-3.607-.025.021ZM152.618 130.515c.81-.308 1.621-.689 2.573-.223l-2.573.215v.008Z"/><path fill="#FEFEFE" d="M198.72 177.427c.345.178.703.33 1.07.454a2.75 2.75 0 0 1-.089.592c0 .045-.04.09-.057.134.608.56 1.216 1.128 1.812 1.7.288.126.575.26.855.406.011-.119.029-.236.053-.353.198-.811.454-1.57.636-2.158a3.06 3.06 0 0 1-2.634-1.903l-.049.247c-.138.751-.624.812-1.187.406-.839-.633-1.621-1.343-2.497-1.927-1.556-1.047-3.161-2.029-4.745-3.027a1.815 1.815 0 0 1-.543-.405c-1.022-1.538-2.837-2.029-4.15-3.173-.876-.738-1.783-1.436-2.675-2.15a40.326 40.326 0 0 1-1.848-1.542c-.766-.689-1.427-1.489-2.209-2.154a2.004 2.004 0 0 0-.595-.369c-.629-.227-1.374-.244-1.435-1.217 0-.24-.454-.467-.717-.678-1.334-1.079-2.675-2.146-4.098-3.29l.304-.43a3.494 3.494 0 0 1-2.026-1.404.622.622 0 0 1-.369.138c-1.592-1.217-3.327-2.507-5.017-3.854-.361-.288-.51-.836-.855-1.148a119.567 119.567 0 0 0-3.805-3.311c-3.299-2.755-6.622-5.477-9.921-8.232-1.731-1.448-3.429-2.933-5.135-4.41-.19-.166-.442-.385-.466-.604-.109-1.027-.15-2.061-.227-3.315 1.074.073 2.026.187 3.019.195 1.168 0 2.339-.073 3.506-.118.328.175.681.52.985.483 1.382-.166 2.751-.434 4.121-.698.272-.048.523-.361.774-.349.705.037 1.483.43 2.087.232 2.675-.885 5.402.507 8.053-.301 1.69.686 3.327-.438 5.013-.133.628.087 1.262.124 1.897.109 1.033 0 2.066.028 3.1 0a18.518 18.518 0 0 0 3.368-.211c.81-.17 1.463-.499 2.111.256.085.101.405.024.6 0 .194-.025.486-.053.729-.09.045 0 .077-.06.122-.097l-.636-.56c.77.15 1.641.451 1.714.317.64-1.173 1.402-.244 2.067-.175.405.045.774.378 1.163.58l.109-.146-.49-.198.182-.325c.292.105.58.219.876.312.204.079.421.122.64.126.539-.049 1.078-.154 1.621-.215.434-.045.973.097 1.293-.109 1.361-.873 2.837-.366 4.166-.224 1.329.142 2.585.325 3.87-.052.215-.068.414-.18.584-.329a.402.402 0 0 0 .04-.365c-.036-.081-.263-.179-.304-.146-.66.552-1.386.142-2.075.203-2.391.211-4.863-.589-7.189.629.19-.727-.17-1.031-.892-.954-1.045.11-2.099.15-3.149.183-.96.028-1.92 0-2.974 0-.154-.467-.811-.536-1.743.125l-.3-.738-3.432.836c0-.077-.029-.154-.045-.231l.896-.268c-2.027 0-4.024-.069-6.026 0s-4.203.775-6.14.373c-1.795-.377-3.469-.04-5.183-.109-3.243-.13-6.485.069-9.751.097-2.184 0-4.373 0-6.557-.024h-1.565a16.094 16.094 0 0 1-.243-2.029c0-3.168.114-6.337.11-9.506a47.321 47.321 0 0 0-.252-5.022c-.085-.812-.137-1.526.369-2.199.084-.167.146-.344.183-.528l-.661.215c0-.206-.065-.47 0-.523 1.102-.73.442-1.647.296-2.511a1.453 1.453 0 0 1 0-.406c.085-1.01.174-2.028.251-3.026 0-.09-.065-.187-.097-.276l-.778-2.183.198-.077.511.487c-.092-.917-.186-1.835-.284-2.755-.109-1.047-.364-2.102-.308-3.136.094-1.655.588-3.302.543-4.942-.052-1.874-.51-3.736-.786-5.602a9.254 9.254 0 0 1-.134-1.319c.021-.206.077-.406.167-.592-.041-.572-.073-1.051-.11-1.53l.312-.032.405.925.321-.122-.495-1.671c.405-.248.405-.244.061-1.06-.061-.145-.101-.437-.045-.474.758-.43.15-.86 0-1.286a4.918 4.918 0 0 1-.287-.852c-.122-1.217-.191-2.406-.308-3.607-.049-.51-.13-.994.656-.702-.121-.535-.405-1.05-.292-1.415.312-.91.134-1.765.025-2.646-.142-1.168.523-1.837 1.649-1.663.606.144 1.223.242 1.844.292 1.816 0 3.647.876 5.447-.081 1.353.531 2.622-1.022 3.996-.166.085.052.259-.037.405-.05 1.272-.145 2.577-.547 3.805-.372 1.946.276 3.915.355 5.877.235.867-.053 1.726-.329 2.589-.333 2.063 0 4.126.09 6.193.146.832.063 1.666.083 2.5.061.75-.053 1.487-.406 2.221-.406.973.081 1.939.233 2.89.455l-.503-.588 1.722.34c.171-.608.369-.97 1.119-.405.511.381 1.216.503 1.836.73.04 0 .105-.04.194-.077l-.405-.377c.993.344 1.929.141 2.885-.061a10.63 10.63 0 0 1 1.84-.106c1.346-.049 2.724-.288 4.053-.085 1.329.203 2.521.365 3.781.028.313-.118.613-.27.896-.45l-.065-.264h-2.602c-1.281 0-2.561-.052-3.842-.044-.626 0-1.251.052-1.868.154-.498.114-.987.26-1.467.434.267-.71-.045-.941-.726-.925-1.904.049-3.809.122-5.714.105-.782 0-1.479-.462-2.375 0-.575.297-1.479-.097-2.233-.08a9.805 9.805 0 0 0-1.576.291c0-.073-.032-.15-.053-.227l1.034-.255-.037-.333c-3.1.199-6.2.406-9.301.6-.912.095-1.83.133-2.747.114-.896-.057-1.783-.406-2.675-.406-1.447 0-2.898.28-4.344.268-3.182-.028-6.363-.19-9.548-.247-1.885-.029-3.777.032-5.674.077-.944.02-1.192-.268-.924-1.157.045-.122.071-.25.077-.38-.032-1.806-.085-3.608-.114-5.413a518.607 518.607 0 0 1-.076-6.114c0-1.485-.053-2.97 0-4.463.06-1.813.279-3.619.303-5.432.029-2.248-.085-4.5-.113-6.751 0-1.542.073-3.087 0-4.621-.041-.811-.243-1.578.219-2.341.113-.183 0-.527-.061-.783-.324-1.351-.661-2.694-.985-4 .811.284.872-.175.835-.718-.146-2.268-.288-4.54-.454-6.808-.121-1.692-.283-3.388-.405-5.08 0-.097.04-.198.04-.3V8.544c-.113-.369.138-.738.122-1.091-.077-1.36-.28-2.706-.357-4.057-.06-1.132 0-2.268 0-3.4-.194.56-.162 1.177-.352 1.716-.847 2.41-.766 4.905-.811 7.396-.024 2.272-.125 4.544-.17 6.812-.032 1.81-.049 3.623-.032 5.432 0 1.197.125 2.398.133 3.595 0 2.11 0 4.215-.028 6.325 0 .706.032 1.416.028 2.126-.024 3.452-.838 6.897.041 10.365.182.73-.28 1.603-.312 2.41-.081 2.333-.093 4.67-.134 7.003-.024 1.359-.089 2.722-.069 4.081a80.73 80.73 0 0 0 .215 4.743 12.3 12.3 0 0 0 .454 1.903c-.453.129-.917.218-1.386.267-1.163 0-2.33-.113-3.493-.097-2.687.04-5.37.178-8.057.19-2.116 0-4.231-.162-6.346-.17-2.655 0-5.305.037-7.956.098-1.26.028-2.581.754-3.866-.723l.182 1.043c-.405-.069-.903-.069-.932-.182-.239-1.023-.891-.426-1.39-.406a9.412 9.412 0 0 0-1.475.126c-.981.215-1.933.344-2.837-.207-.052-.029-.186.048-.271.093-1.155.588-1.131.487-2.306.24a3.77 3.77 0 0 0-2.318.125c-1.09.556-2.132.463-3.242.329-1.719-.203-3.437-.625-5.147-.597-1.925.037-3.846.467-5.771.727l.036.344 2.618-.174.025.272c-.586.103-1.18.15-1.775.142-.973-.102-1.93-.333-2.922-.52.08-.214.198-.535.32-.856-.462.293-.75.743-1.16 1.015a3.598 3.598 0 0 1-1.179.292l-.072-.264 1.418-.937-.101-.268-1.703.568c-.247-.499-.239-.487-1.09-.093-.162.077-.535.069-.563 0-.276-.698-.657-.26-1.01-.126-.357.183-.737.32-1.13.406a57.73 57.73 0 0 1-3.93.26c-.252 0-.516-.264-.888-.471h-2.813c-.316 0-.628-.04-.81-.057 0-.552.024-.986 0-1.416-.057-.933-.207-1.862-.203-2.795 0-3.278.09-6.556.118-9.835 0-.81-.122-1.622-.09-2.434.065-1.716.272-3.424.28-5.136 0-2.434-.138-4.84-.166-7.258 0-.937.166-1.874.166-2.812 0-1.18-.405-2.369.06-3.55a.938.938 0 0 0-.06-.494l-1.013-3.859.296.086c.17-.305.502-.613.486-.901-.142-2.378-.349-4.755-.543-7.128-.122-1.497-.264-2.99-.405-4.487 0-.159.11-.325.101-.487 0-.365-.077-.726-.118-1.088-.04-.36.163-.811.15-1.176-.04-1.01-.243-2.029-.283-3.027-.049-1.416 0-2.84 0-4.26h-.248a7.048 7.048 0 0 1-.162 1.623c-.85 2.48-.843 5.035-.786 7.595.028 1.217.203 2.434.158 3.61-.069 1.806-.373 3.603-.405 5.405-.024 1.903.207 3.801.243 5.704.037 1.972-.19 3.964 0 5.92.405 4.26-.94 8.519.17 12.783.248.95-.206 2.065-.247 3.108-.089 2.296-.134 4.596-.17 6.897 0 .596.13 1.192.126 1.785-.02 2.272-.608 4.568.405 6.783.097.215-.11.625-.28.877-.06.089-.405-.041-.648-.041-.392-.012-.785 0-1.175.036-.25.078-.505.142-.762.191-1.014 0-2.051-.235-3.024-.06a1.883 1.883 0 0 1-1.868-.597 198.368 198.368 0 0 0-4.053-3.794c-1.576-1.432-3.21-2.799-4.77-4.247-2.123-1.964-4.202-3.976-6.29-5.976-.384-.37-.729-.787-.956-1.035l.337-.446c-1.11-.304-1.747-1.363-1.941-2.467-.264.244-.531.479-.81.702-.337-.288-.661-.527-.941-.811-1.423-1.428-2.865-2.84-4.247-4.313-1.601-1.704-3.129-3.477-4.726-5.193a44.227 44.227 0 0 0-6.423-5.562l.608-.073c-.085-.304-.077-.69-.264-.9-.79-.873-1.657-1.672-2.456-2.54a197.972 197.972 0 0 1-4.364-4.869 1.219 1.219 0 0 1-.154-.888 3.243 3.243 0 0 1-1.382-1.335l-.053.101c-.725-1.314-2.375-1.74-2.674-3.363-.033-.183-.361-.329-.572-.459-.21-.13-.571-.206-.563-.263.198-1.46-1.325-1.858-1.812-2.946-.62-1.391-1.807-2.523-2.703-3.801-.628-.9-1.175-1.866-1.755-2.804a29.84 29.84 0 0 0 1.443 3.623 44.13 44.13 0 0 0 7.295 10.849c.315.294.519.688.575 1.116.44.488.81 1.034 1.103 1.622l.02-.024c1.35 1.793 2.634 3.651 4.052 5.36 1.245 1.484 2.675 2.807 4.013 4.21.624.658 1.215 1.34 1.831 2.005l11.311 12.24c.268.288.523.596.718.811h-.057a3.176 3.176 0 0 1 1.26 2.276c.243-.13.486-.255.726-.373.83.482 1.632 1.01 2.403 1.582.498.406.81 1.055 1.256 1.534 1.406 1.473 2.796 2.962 4.28 4.353 1.32 1.242 2.764 2.357 4.137 3.542 1.07.92 2.12 1.866 3.178 2.8l-.15.259H52.57c-1.451 0-2.898.036-4.349 0-3.797-.057-7.595-.134-11.388-.211-.904-.02-1.807-.028-2.703-.114a14.9 14.9 0 0 0-4.49.272 2.808 2.808 0 0 1-.875-.162 3.31 3.31 0 0 0-1.11-.13c-1.294.256-2.57.584-3.839.88-.377-.852-.442-.81-1.62-.73-2.027.162-4.053.26-6.1.357-1.167.057-2.338.049-3.506.081-.984.029-1.965.065-2.95.106-.13 0-.348.02-.373.085-.28.71-.616.349-.993.106a.993.993 0 0 0-.567-.106c-1.09.09-2.176.252-3.266.292-1.48.049-2.959 0-4.438 0 .527.231 1.127.11 1.577.313 1.912.876 3.95.81 5.957.892 2.675.106 5.353.037 8.032.065 3.648.04 7.295.13 10.942.154 2.432 0 4.9-.028 7.348-.069 3.789-.065 7.566.917 11.388 0 .997-.235 2.14.187 3.221.272.847.069 1.703.093 2.553.114 1.609.1 3.221.119 4.831.056 1.986-.146 3.903-.194 5.674.865.215.125.506.125.71.26.627.381 1.218.82 1.766 1.31.912.908 1.621 2.101 2.65 2.787a2.027 2.027 0 0 1 1.062 1.943c.073 2.747.365 5.49.406 8.236.048 3.61-.086 7.221-.094 10.832 0 2.633.094 5.274.118 7.895.08 8.374.142 16.748.227 25.121 0 .358.219.706.23 1.063 0 .495.094 1.132-.17 1.445-.263.312-.9.284-1.381.377-.154.028-.329-.061-.49-.057-1.8.037-3.6.102-5.399.126-2.399.032-4.802.024-7.205.049-1.18 0-2.359.101-3.538.081-3.392-.057-6.784-.175-10.176-.227-2.606-.037-5.212 0-7.822 0a12.73 12.73 0 0 0-2.334.032c-1.39.26-2.756.67-3.753.921-.405-.377-.596-.661-.843-.738a2.413 2.413 0 0 0-.896.052c-1.807.171-3.61.406-5.422.508-1.718.113-3.445.133-5.171.178-.584 0-1.167-.032-1.75-.041-.163 0-.443 0-.463.065-.251.735-.571.451-.96.126a.853.853 0 0 0-.568-.109c-1.147.097-2.29.263-3.436.308-1.419.057-2.837 0-4.264 0 .584.28 1.216.268 1.76.438 2.552.791 5.17.812 7.8.718 1.305-.048 2.614-.174 3.915-.122 2.104.086 4.199.382 6.302.406 1.856.025 3.716-.255 5.576-.292 2.071-.045 4.146.037 6.217.053 1.248 0 2.497-.041 3.74 0 1.516.049 3.036.28 4.544.207 1.507-.073 3.01.474 4.523-.406.567-.325 1.58.203 2.395.235 2.496.098 4.995.164 7.497.199 1.033 0 2.067-.142 3.1-.142 1.034 0 2.026.162 3.02.15.992-.012 2.087.037 3.023-.276.936-.312 1.738-.47 2.516 0 0 1.149-.077 2.26.029 3.351.073.792.494 1.554.571 2.345.126 1.339.101 2.686.138 4.033 0 .098-.065.195-.069.296a765.025 765.025 0 0 0-.182 4.029v.036c-.145.55-.242 1.11-.292 1.676.044.507.139 1.009.284 1.497.105.523.032 1.294.348 1.522.486.348.56.405.154.856-.198.219-.162.701-.13 1.058.118 1.339.406 2.67.406 4.009 0 1.44-.535 2.815-.179 4.349.357 1.534.22 3.095.24 4.649.024 1.623-.073 3.246-.02 4.893.036 1.173.279 2.337.327 3.509 0 .577.527 1.339-.405 1.725a.5.5 0 0 0-.105.426c.7.551.766 1.241.51 2.028 1.115.584.179 1.355.15 2.029 0 .328-.348.641-.632 1.124l.584-.276-.195.88c.065.884.106 1.517.158 2.15-.023.403.03.806.154 1.189.693 1.331.142 2.69.183 4.033.036 1.14-.166 2.304 0 3.424.105.771.697 1.468.514 2.341-.024.113.065.247.106.373.077-1.659.085-3.144.077-4.629a22.566 22.566 0 0 1-.037-2.864c.146-1.217.17-2.366-.66-3.42.761.044 1.163-.244 1.017-.942-.458-2.134-.183-4.247.065-6.373a4.062 4.062 0 0 0-.203-1.132c1.196-1.217-.434-2.434-.186-3.838.21.369.364.633.636 1.111-.134-2.779-.227-5.331-.405-7.878-.114-1.802-.66-3.603.125-5.384.043-.197.043-.4 0-.596-.113-1.859-.32-3.717-.32-5.575 0-3.424.134-6.852.158-10.276 0-2.958-.044-5.915-.065-8.873v-2.913c.256-.036.513-.056.77-.061 2.063.118 4.126.361 6.185.345 2.65 0 5.296-.337 7.943-.357 6.808-.049 13.62 0 20.429 0h7.388c2.46 0 4.863-.081 7.295-.122 2.431-.04 4.928-.162 7.384-.069 2.455.094 4.782-.405 7.189-.186.81.073 1.69-.297 2.472-.138 2.055.405 3.388 1.992 4.782 3.387.296.292.024 1.084.207 1.574.673 1.726.871 3.6.575 5.429-.081.47.171.99.13 1.477-.077 1.034-.3 2.057-.353 3.091 0 .406.292.836.406 1.27.166.706.279 1.428.405 2.146h-.219l-.665-2.028c.021 1.497.17 2.99.446 4.462 0 .126.223.211.288.341a.928.928 0 0 1 .101.463 24.134 24.134 0 0 0-.214 2.401c0 1.136.222 2.264.21 3.396 0 1.022-.425 2.077-.271 3.059a6.83 6.83 0 0 1 0 3.096c-.061.203.085.474.17.702.085.227.308.442.308.661 0 1.659-.024 3.318-.061 4.974-.024 1.31-.142 2.625-.093 3.931.079.938.214 1.87.405 2.791l-.344-.093c-.114.223-.329.45-.316.661.056.333.154.658.291.966l.523-.406-.356 1.623c.332.251.62.633.539.901a16.41 16.41 0 0 1-.88 1.939c-.032.073 0 .178.029.324l.543-.507c-.049.406-.069.621-.11.844-.085.3-.143.607-.174.917 0 .487.105.966.162 1.448.008.468.069.934.182 1.388.531 1.42.162 2.84 0 4.227-.182 1.623-.482 3.222.774 4.569-.267-5.68.511-11.36.053-16.975.033.04.114.158.195.276l.259-.057c-.081-.564-.162-1.128-.231-1.623l.494-1.193-.17-.069-.215.268c-.06-.17-.19-.353-.166-.511.134-.763.47-1.525.442-2.276-.101-2.722-.462-5.445-.43-8.159 0-1.318-.632-2.702.199-4.016.186-.292.109-.783.089-1.181-.081-1.529-.279-3.055-.271-4.58.024-4 .15-7.997.202-11.997.033-2.381 0-4.767 0-7.152l.324-.329c.811.97 1.577 2.004 2.477 2.893.535.531 1.305.811 1.957 1.245.361.235.677.548 1.05.751.745.405 1.523.762 2.273 1.164.225.128.426.292.596.487.345.471.725.915 1.139 1.327 1.621 1.306 3.343 2.487 4.907 3.854 1.216 1.067 2.006 2.625 3.676 3.181.17.052.272.292.405.434.625.604 1.216 1.257 1.889 1.793 1.114.884 2.306 1.667 3.433 2.531a.943.943 0 0 1 .352.463 3.07 3.07 0 0 1 1.577 1.651c.085-.081.178-.162.275-.239.592.56 1.159 1.128 1.759 1.659 1.086.962 2.16 1.931 3.295 2.84.634.454 1.3.861 1.994 1.217.336.191.689.325.405.84-.033.057.405.544.511.503 1.467-.54 1.754.852 2.553 1.44.494-.531.912-.3 1.28.256.491.734.977 1.477 1.475 2.207a.556.556 0 0 0 .462.207l-.457-.641c.133 0 .267-.045.283 0 .681 1.294 2.16 1.546 3.182 2.434.782.665 1.92.884 2.788 1.469 1.293.868 2.468 1.915 3.732 2.84.912.738 1.889 1.33 2.865 1.931Zm-43.529-47.143-2.537.211c.815-.308 1.621-.67 2.537-.211ZM67.654 69.806a13.02 13.02 0 0 0-1-1.055c-.426-.37-.92-.654-1.358-1.006-.34-.272-.64-.589-.96-.885l.255-.365 3.242.345c.073.892.146 1.83.223 2.763l-.401.203Zm1.8 79.416c-.166-1.274-.312-2.373-.458-3.469.259.584.466 1.19.62 1.81.097.462-.073.978-.15 1.659h-.012Zm54.127-20.808c-2.509 0-5.017.284-7.53.336-.648 0-1.309-.357-2.026-.564.052.163.109.333.194.605-.288 0-.697.053-.754-.057-.478-.933-1.155-.426-1.831-.377-1.216.093-2.481.02-3.721.028a3.16 3.16 0 0 0-.701.122c-.51.122-1.013.284-1.528.365-.101 0-.247-.268-.405-.462-.369.085-.896.243-1.431.316-1.661.235-3.242.702-5.02.187-1.65-.479-3.482-.467-5.233-.434-1.11 0-2.208.523-3.33.718-1.124.194-2.282.275-3.474.405.028-.19.053-.373.077-.56-.539.577-1.041.792-1.755.163l1.001-.471c0-.081-.036-.162-.056-.243l-1.508.324c-.405-.04-.81-.093-1.216-.117a6.871 6.871 0 0 0-.717.028c-.308.02-.62.024-.924.065-1.848.219-3.692.45-5.536.673-.057 0-.118-.056-.182-.093l.166-.333h-4.799c-.06-1.375-.17-2.722-.178-4.057 0-3.505.049-7.014 0-10.52-.02-1.33-.324-2.653-.353-3.984 0-.58.349-1.172.564-1.825l-.58.081c0-.219-.065-.556 0-.592 1.038-.479.442-1.218.406-1.923-.077-1.157 0-2.321 0-3.485.019-.185.01-.371-.029-.552a7.165 7.165 0 0 1-.535-2.073l.58.535c.045-.119.073-.243.085-.369-.134-.714-.251-1.428-.438-2.126-.073-.276-.405-.495-.45-.77a4.995 4.995 0 0 1-.052-1.514c.166-1.217.494-2.434.587-3.651.094-1.233.076-2.471-.052-3.7a33.547 33.547 0 0 0-.702-3.53 2.717 2.717 0 0 0-.316-.596c.053-.406.134-.986.235-1.72l.852.206c-.345-.742.81-1.862-.681-2.54l.883-.239c-.174-.284-.344-.523-.474-.787-.065-.138-.122-.406-.065-.454.851-.548.037-1.01-.057-1.505-.093-.495-.174-1.039-.3-1.794.49.345.811.532 1.074.759 2.643 2.134 5.281 4.272 7.915 6.414 3.04 2.478 6.074 4.962 9.102 7.453.72.09 1.38.448 1.848 1.002.773.86 1.474 1.783 2.096 2.759l-.025-.138.272-.126 24.834 20.367-.15.17a3.649 3.649 0 0 1 1.621 2.568l1.022-.779 5.155 4.171c1.122.917 2.115 2.101 3.384 2.71 1.807.864 2.836 2.523 4.38 3.627.847.612 1.65 1.294 2.594 2.028-4.117-.426-7.963-.154-11.801-.125h-.012Zm17.248-.122c-1.172.032-2.027-.491-2.894-1.262-1.333-1.18-2.837-2.146-4.263-3.245a18.662 18.662 0 0 1-1.573-1.481c-.316-.301-.587-.649-.924-.925a5557.281 5557.281 0 0 0-8.915-7.238c-.098-.077-.175-.191-.118-.126.267-.511.523-1.014.774-1.509a5.964 5.964 0 0 1-1.893-2.357 20.31 20.31 0 0 1-1.325 1.765c-2.237-1.623-4.458-3.141-6.557-4.78-.567-.442-.863-1.241-1.341-1.963-.077.235-.134.405-.312.917a6.687 6.687 0 0 0-.474-1.132 5.41 5.41 0 0 0-.937-1.083 29.378 29.378 0 0 0-2.123-1.623c-.434-.301-.981-.442-1.39-.767a12.25 12.25 0 0 1-.953-1.12 1.923 1.923 0 0 0-.786-.507 3.687 3.687 0 0 1-2.391-1.704c-.405-.694-1.435-1.014-2.148-1.554-1.264-.95-2.514-1.92-3.749-2.913a11.7 11.7 0 0 1-1.053-1.05c-.332-.353-.64-.73-.977-1.08a3.245 3.245 0 0 0-.786-.71 1.05 1.05 0 0 1-.725-.986 3.095 3.095 0 0 1-1.277-.782 3.052 3.052 0 0 1-.292-.353l-7.898-4.901 1.167-.45c-.515-.484-1.034-1.015-1.621-1.482-.292-.235-.576-.892-1.099-.23-.028.036-.336-.074-.336-.106.028-.298.074-.593.138-.885-.353-.089-.766-.182-1.167-.304-.118-.037-.296-.154-.3-.248-.07-1.026-1.01-.928-1.6-1.31-1.431-.917-2.838-1.907-4.22-2.876-.437-.305-.859-.633-1.35-.994l.629-.495a4.576 4.576 0 0 1-1.196-.507c-.709-.605-1.357-1.282-2.026-1.952a.836.836 0 0 1-.198-.547c.02-1.185.113-2.374.085-3.559-.025-.9.567-1.038 1.159-.97 3.424.406 6.836.289 10.273.155 4.555-.175 9.123-.032 13.686-.028h26.001c2.971 0 5.938 0 8.916-.037.753-.06 1.501-.174 2.237-.34a.595.595 0 0 1 .199-.025c1.426.406 2.837.333 4.32.195s2.93.438 4.397-.159a7.817 7.817 0 0 1 1.572-.26c.082.994.096 1.992.041 2.987-.405 3.318-.219 6.625-.061 9.948.166 3.509.049 7.035.053 10.548.021 12.39.042 24.782.061 37.175 0 .365.052.73.093 1.217-.835.004-1.69-.016-2.541.008h-.012Zm10.382 12.244-2.354-1.217c.061-.118.126-.235.19-.353.77.435 1.543.867 2.318 1.294-.04.102-.093.187-.141.276h-.013Z"/></g><defs><clipPath id="clip0_1040_3548"><path fill="#fff" d="M0 0h203v198H0z"/></clipPath></defs></svg>